# xmcd
#
# Track frame offsets:
# 150
# 13795
# 27934
# 40474
# 51200
# 64887
# 83693
# 97525
# 111707
# 131626
#
# Disc length: 1949 seconds
#
#
# Revision: 0
# Processed by: cddbd v1.5PL3 Copyright (c) Steve Scherf et al.
# Submitted via: FreeRIP 2.53 
#
DISCID=82079b0a
DTITLE=Travis, Randy - The Storms Of Life
DYEAR=1900
DGENRE=
TTITLE0=1982
TTITLE1=On The other Hand
TTITLE2=The Storms Of Life
TTITLE3=My Heart Cracked(But It Did Not Break)
TTITLE4=Diggin' Up Bones
TTITLE5=No Place Like Home
TTITLE6=Send My Body
TTITLE7=Messin' With My Mind
TTITLE8=Reasons I Cheat
TTITLE9=There'll Always Be A Honky Tonk
EXTD=
EXTT0=
EXTT1=
EXTT2=
EXTT3=
EXTT4=
EXTT5=
EXTT6=
EXTT7=
EXTT8=
EXTT9=
PLAYORDER=
